<svg xmlns="http://www.w3.org/2000/svg" viewBox="0 0 48 48">
  <g>
    <path fill="currentColor" d="M14.66,16.67c0.26,4.55,3.93,9.42,8.78,9.42s8.51-4.87,8.78-9.42H14.66z M23.44,27.13
      c-2.58,0-5.06-1.24-6.98-3.48c-1.81-2.12-2.85-4.85-2.85-7.5c0-0.29,0.23-0.52,0.52-0.52h18.62c0.29,0,0.52,0.23,0.52,0.52
      c0,2.64-1.04,5.37-2.85,7.5C28.5,25.89,26.02,27.13,23.44,27.13"/>
    <path fill="currentColor" d="M33.79,12.02c-0.29,0-0.52-0.23-0.52-0.52c0-3.15-1.58-6.06-4.17-7.79v2.59c0,1.15-0.93,2.08-2.08,2.08
      c-1.15,0-2.08-0.94-2.08-2.08V2.19c-0.69-0.08-1.39-0.08-2.08,0v4.11c0,1.15-0.93,2.08-2.08,2.08c-1.15,0-2.08-0.94-2.08-2.08V3.71
      c-2.59,1.73-4.17,4.64-4.17,7.79c0,0.29-0.23,0.52-0.52,0.52c-0.29,0-0.52-0.23-0.52-0.52c0-3.84,2.1-7.35,5.48-9.17
      c0.16-0.09,0.36-0.08,0.51,0.01c0.16,0.09,0.25,0.26,0.25,0.45v3.51c0,0.57,0.47,1.04,1.04,1.04s1.04-0.47,1.04-1.04V1.73
      c0-0.26,0.19-0.48,0.44-0.51c1.09-0.17,2.2-0.17,3.29,0c0.25,0.04,0.44,0.26,0.44,0.51v4.56c0,0.57,0.47,1.04,1.04,1.04
      c0.58,0,1.04-0.47,1.04-1.04V2.79c0-0.18,0.1-0.35,0.25-0.45c0.16-0.09,0.35-0.1,0.51-0.01c3.38,1.82,5.48,5.34,5.48,9.17
      C34.31,11.79,34.08,12.02,33.79,12.02"/>
    <path fill="currentColor" d="M36.91,12.54H10.88c-0.29,0-0.52-0.23-0.52-0.52c0-0.29,0.23-0.52,0.52-0.52h26.04
      c0.29,0,0.52,0.23,0.52,0.52C37.43,12.31,37.2,12.54,36.91,12.54"/>
    <path fill="currentColor" d="M25.46,22.96h-4.17c-0.29,0-0.52-0.23-0.52-0.52c0-0.29,0.23-0.52,0.52-0.52h4.17
      c0.29,0,0.52,0.23,0.52,0.52C25.98,22.72,25.75,22.96,25.46,22.96"/>
    <path fill="currentColor" d="M27.34,38.58h3.87l4.02-7.84c-0.93-0.67-1.93-1.26-2.97-1.75L27.34,38.58z M31.53,39.62h-5.04
      c-0.18,0-0.35-0.09-0.44-0.25c-0.09-0.15-0.1-0.35-0.02-0.51l5.54-10.8c0.13-0.25,0.42-0.35,0.68-0.24
      c1.4,0.62,2.74,1.41,3.97,2.34c0.2,0.15,0.26,0.43,0.15,0.65l-4.37,8.52C31.9,39.51,31.72,39.62,31.53,39.62"/>
    <path fill="currentColor" d="M17.95,38.58h3.87l-5.14-10.02c-1.06,0.44-2.08,0.97-3.05,1.59L17.95,38.58z M22.67,39.62h-5.04
      c-0.2,0-0.37-0.11-0.46-0.28l-4.68-9.13c-0.12-0.23-0.05-0.52,0.17-0.67c1.27-0.86,2.65-1.57,4.08-2.12
      c0.25-0.09,0.53,0.01,0.65,0.25l5.74,11.2c0.08,0.16,0.07,0.35-0.02,0.51C23.02,39.53,22.85,39.62,22.67,39.62"/>
    <path fill="currentColor" d="M13.48,45.87h21.87v-3.85c0-1.32-1.07-2.39-2.39-2.39H15.88c-1.32,0-2.4,1.08-2.4,2.39V45.87z M35.87,46.91
      H12.96c-0.29,0-0.52-0.23-0.52-0.52v-4.38c0-1.89,1.54-3.44,3.44-3.44h17.08c1.89,0,3.44,1.54,3.44,3.44v4.38
      C36.39,46.68,36.16,46.91,35.87,46.91"/>
    <path fill="currentColor" d="M24,27.13c-9.4,0-17.38,6.71-18.98,15.95c-0.12,0.7,0.07,1.41,0.52,1.95c0.45,0.54,1.11,0.84,1.81,0.84
      h33.29c0.7,0,1.36-0.31,1.81-0.84c0.46-0.54,0.64-1.25,0.52-1.95C41.38,33.83,33.4,27.13,24,27.13z M40.65,46.91H7.35
      c-1.01,0-1.96-0.44-2.61-1.21c-0.65-0.78-0.93-1.8-0.76-2.8c0.81-4.65,3.25-8.91,6.87-11.99c3.66-3.11,8.33-4.83,13.14-4.83
      c4.81,0,9.48,1.71,13.14,4.83c3.62,3.08,6.06,7.34,6.87,11.99c0.18,1-0.1,2.02-0.75,2.8C42.61,46.47,41.66,46.91,40.65,46.91"/>
  </g>
</svg> 